<svg width="112" height="38" viewBox="0 0 112 38" xmlns="http://www.w3.org/2000/svg"><title>Android</title><defs><linearGradient x1="59.966%" y1="92.223%" x2="33.421%" y2="-59.049%" id="a"><stop stop-color="#D6FFA1" offset="0%"/><stop stop-color="#93E2A7" offset="32.64%"/><stop stop-color="#00A3B5" offset="100%"/></linearGradient><linearGradient x1="-32.113%" y1="-127.951%" x2="80.101%" y2="114.654%" id="b"><stop stop-color="#FF177B" offset="0%"/><stop stop-color="#FFA976" offset="67.21%"/><stop stop-color="#FFEC73" offset="100%"/></linearGradient><linearGradient x1="51.185%" y1="74.587%" x2=".136%" y2="-29.522%" id="c"><stop stop-color="#63FFD4" offset="0%"/><stop stop-color="#32A0BA" offset="48.54%"/><stop stop-color="#1262A9" offset="83.49%"/><stop stop-color="#064AA2" offset="100%"/></linearGradient><linearGradient x1="119.195%" y1="35.33%" x2="-23.131%" y2="60.808%" id="d"><stop stop-color="#FF4521" offset="0%"/><stop stop-color="#D43E65" offset="34.11%"/><stop stop-color="#9F36B9" offset="79.35%"/><stop stop-color="#8A33DB" offset="100%"/></linearGradient></defs><g fill="none" fill-rule="evenodd"><path d="M112 32.527c0 3.356-2.5 5.473-5.887 5.473H6.147C2.76 38 0 35.264 0 31.908V6.092C0 2.736 2.76 0 6.147 0h99.914c3.387 0 5.888 2.736 5.888 6.092v26.435H112z" fill="#000"/><g fill="#FFF"><path d="M76.525 27.165l-.834.77c-.207.103-.363.206-.572.308-.573.257-1.198.308-1.72.308-.572 0-1.458-.05-2.343-.666-1.25-.873-1.77-2.362-1.77-3.646 0-2.67 2.24-4.006 4.01-4.006.625 0 1.302.154 1.823.463.886.564 1.094 1.335 1.25 1.694l-4.115 1.642-1.354.103c.415 2.208 1.926 3.492 3.645 3.492.782.05 1.407-.205 1.98-.462 0-.05.104-.103 0 0zm-2.5-4.416c.312-.104.52-.207.52-.464 0-.667-.78-1.49-1.72-1.49-.676 0-2.03.515-2.03 2.415 0 .31.052.617.052.925l3.177-1.386zM67.877 27.01c0 .668.104.77.677.822.313.052.626.052.886.103l-.625.36H65.74c.418-.514.47-.565.47-.925V16.638h-1.354l1.302-.616h2.5c-.52.308-.73.513-.78 1.13v9.86z"/><path d="M63.085 21.105c.416.31 1.25 1.027 1.25 2.363 0 1.283-.73 1.9-1.46 2.464-.207.206-.468.463-.468.873 0 .36.26.617.47.77l.624.463c.783.667 1.46 1.232 1.46 2.413 0 1.645-1.615 3.288-4.636 3.288-2.553 0-3.803-1.18-3.803-2.465 0-.616.313-1.49 1.355-2.105 1.094-.668 2.553-.77 3.334-.77-.26-.31-.522-.668-.522-1.182 0-.308.105-.462.157-.667-.21 0-.365.05-.573.05-1.876 0-2.918-1.386-2.918-2.722 0-.82.365-1.694 1.146-2.31.99-.822 2.188-.976 3.126-.976h3.647l-1.146.616h-1.042v-.103zm-1.25 7.652h-.417c-.157 0-1.094.05-1.824.257-.364.154-1.51.564-1.51 1.797s1.198 2.106 3.073 2.106c1.667 0 2.605-.82 2.605-1.848 0-.873-.573-1.336-1.928-2.31zm.52-3.287c.417-.41.417-.975.417-1.284 0-1.232-.73-3.183-2.24-3.183-.47 0-.938.205-1.25.565-.313.36-.365.82-.365 1.283 0 1.182.677 3.082 2.188 3.082.52.052.99-.154 1.25-.462zM52.197 28.55c-2.813 0-4.27-2.155-4.27-4.107 0-2.26 1.874-4.21 4.53-4.21 2.605 0 4.22 2.002 4.22 4.108 0 2.055-1.615 4.21-4.48 4.21zm2.188-1.436c.417-.565.52-1.233.52-1.9 0-1.54-.728-4.417-2.916-4.417-.574 0-1.147.206-1.564.565-.677.616-.833 1.387-.833 2.106 0 1.694.833 4.518 2.97 4.518.728.052 1.405-.308 1.822-.872zM42.82 28.55c-2.813 0-4.27-2.155-4.27-4.107 0-2.26 1.874-4.21 4.53-4.21 2.606 0 4.22 2.002 4.22 4.108 0 2.055-1.614 4.21-4.48 4.21zm2.24-1.436c.417-.565.52-1.233.52-1.9 0-1.54-.728-4.417-2.916-4.417-.573 0-1.146.206-1.563.565-.676.616-.832 1.387-.832 2.106 0 1.694.885 4.518 2.97 4.518.676.052 1.406-.308 1.822-.872zM37.455 27.935l-2.344.514c-.937.153-1.823.255-2.708.255-4.532 0-6.303-3.286-6.303-5.905 0-3.132 2.447-6.06 6.667-6.06.885 0 1.72.155 2.5.36 1.25.36 1.823.77 2.188 1.027L36.1 19.41l-.573.104.417-.668c-.573-.514-1.563-1.54-3.542-1.54-2.605 0-4.584 1.95-4.584 4.775 0 3.03 2.24 5.906 5.834 5.906 1.042 0 1.615-.205 2.084-.41v-2.62l-2.5.155 1.302-.718h3.49l-.417.41c-.103.206-.103.257-.155.36 0 .154-.052.616-.052.77v2.003h.052z"/><g><path d="M81.63 27.216v4.416h-.886V20.386h.886v1.284c.573-.82 1.615-1.49 2.865-1.49 2.188 0 3.698 1.644 3.698 4.263 0 2.568-1.51 4.262-3.698 4.262-1.198.052-2.24-.564-2.865-1.49zm5.574-2.773c0-1.95-1.042-3.492-2.865-3.492-1.147 0-2.24.874-2.71 1.645v3.594c.47.77 1.563 1.694 2.71 1.694 1.822.05 2.864-1.438 2.864-3.44zM89.392 28.55V17.306h.885V28.55h-.885zM100.227 30.914c.208.102.52.154.73.154.52 0 .937-.206 1.25-.976l.625-1.438-3.49-8.216h.99l3.02 7.086 2.97-7.086h.99l-4.22 9.86c-.47 1.026-1.146 1.488-2.084 1.488-.312 0-.677-.05-.885-.102l.104-.77zM97.622 28.5c-.052-.257-.104-.514-.156-.72-.052-.204-.052-.41-.052-.615-.313.462-.73.82-1.302 1.078-.573.308-1.094.41-1.772.41-.885 0-1.562-.204-2.03-.615-.47-.41-.73-1.027-.73-1.746 0-.72.364-1.335 1.04-1.797.68-.463 1.616-.668 2.71-.668h2.084V22.8c0-.565-.208-1.027-.625-1.386-.418-.31-.99-.514-1.72-.514-.677 0-1.198.154-1.615.462-.417.308-.625.668-.625 1.13h-.886v-.05c-.052-.618.26-1.13.834-1.645.625-.462 1.406-.72 2.344-.72.99 0 1.77.207 2.344.67.573.46.886 1.13.886 1.95v4.006c0 .308 0 .565.052.82.052.258.104.566.156.823h-.938v.154zm-3.125-.616c.78 0 1.302-.154 1.875-.514.573-.308.938-.77 1.146-1.284v-1.54h-2.084c-.78 0-1.458.154-1.98.513-.52.36-.78.77-.78 1.283 0 .462.156.822.52 1.13.26.257.73.41 1.303.41z"/></g></g><path d="M14.482 23.98l2.865-2.772-2.865 2.773-9.116-8.934 9.116 8.935-9.116 9.04 9.116-9.04 2.865 2.825-2.865-2.824z"/><path d="M12.66 6.316L1.51.256C1.2.104.887.052.678.104L9.793 9.09l2.866-2.774z" fill="url(#a)" transform="translate(4.688 14.892)"/><path d="M12.66 11.914l3.8-2.055c.783-.41.783-1.08 0-1.54l-3.8-2.055L9.792 9.09l2.866 2.824z" fill="url(#b)" transform="translate(4.688 14.892)"/><path d="M.677.154C.365.257.104.616.104 1.13v16.073c0 .513.21.82.52.924L9.742 9.14.678.155z" fill="url(#c)" transform="translate(4.688 14.892)"/><path d="M.677 18.127c.26.103.52.05.834-.154l11.15-6.008L9.792 9.14.677 18.128z" fill="url(#d)" transform="translate(4.688 14.892)"/><g fill="#FFF"><path d="M26.047 8.114c0-1.746 1.302-2.825 2.917-2.825 1.094 0 1.77.513 2.24 1.13l-.782.46c-.312-.41-.833-.718-1.458-.718-1.094 0-1.928.822-1.928 2.003 0 1.13.834 2.003 1.928 2.003.573 0 1.042-.257 1.302-.514V8.73H28.65v-.822h2.606v2.054c-.52.616-1.303 1.027-2.292 1.027-1.615-.052-2.917-1.182-2.917-2.876zM32.454 10.835V5.34h3.803v.822h-2.813V7.6h2.76v.822h-2.76v1.54h2.813v.822h-3.803v.05zM38.966 10.835v-4.62H37.3V5.39h4.322v.822h-1.667v4.62h-.99zM45.008 10.835V5.34h.99v5.495h-.99zM48.707 10.835v-4.62H47.04V5.39h4.324v.822h-1.667v4.62h-.99zM54.54 8.114c0-1.644 1.2-2.825 2.867-2.825 1.666 0 2.865 1.18 2.865 2.824 0 1.643-1.2 2.824-2.865 2.824-1.72 0-2.866-1.233-2.866-2.824zm4.69 0c0-1.13-.73-2.003-1.823-2.003-1.147 0-1.824.822-1.824 2.004 0 1.13.73 2.002 1.824 2.002 1.093-.05 1.823-.924 1.823-2.002zM65.22 10.835l-2.917-3.903v3.903h-.99V5.34h.99l2.865 3.8v-3.8h.99v5.495h-.938z"/></g></g></svg>