<svg width="133" height="38" viewBox="0 0 133 38" xmlns="http://www.w3.org/2000/svg"><title>iOS</title><g fill="none" fill-rule="evenodd"><path d="M133 34.19c0 2.105-1.712 3.81-3.83 3.81H3.835C1.718 38 0 36.295 0 34.19V3.815C0 1.71 1.718 0 3.835 0H129.17c2.118 0 3.83 1.71 3.83 3.814V34.19z" fill="#000"/><path d="M30.128 18.784c-.03-3.223 2.64-4.79 2.76-4.864-1.51-2.203-3.852-2.504-4.675-2.528-1.967-.207-3.875 1.177-4.877 1.177-1.022 0-2.565-1.158-4.228-1.124-2.14.033-4.142 1.272-5.24 3.196-2.266 3.923-.576 9.688 1.595 12.86 1.086 1.553 2.355 3.286 4.016 3.225 1.624-.066 2.23-1.035 4.192-1.035 1.943 0 2.513 1.035 4.207.996 1.743-.027 2.84-1.56 3.89-3.127 1.254-1.778 1.758-3.532 1.778-3.622-.04-.014-3.386-1.292-3.42-5.154zM26.928 9.306c.874-1.093 1.472-2.58 1.306-4.09-1.265.057-2.847.876-3.758 1.945-.806.943-1.526 2.487-1.34 3.94 1.42.105 2.88-.718 3.792-1.794z" fill="#FFF"/><g fill="#FFF"><path d="M53.665 30.504h-2.27l-1.245-3.91h-4.324l-1.185 3.91h-2.21l4.285-13.308h2.646l4.305 13.308zm-3.89-5.55L48.65 21.48c-.12-.355-.343-1.19-.67-2.507h-.04c-.133.566-.344 1.402-.633 2.507L46.2 24.955h3.575zM64.663 25.588c0 1.632-.443 2.922-1.33 3.87-.794.842-1.78 1.263-2.958 1.263-1.27 0-2.185-.452-2.74-1.36v5.035h-2.132V24.062c0-1.025-.027-2.076-.08-3.154H57.3l.118 1.52h.04c.71-1.145 1.79-1.718 3.238-1.718 1.132 0 2.077.447 2.833 1.342.754.897 1.133 2.075 1.133 3.536zm-2.172.078c0-.934-.21-1.704-.63-2.31-.462-.632-1.08-.948-1.857-.948-.526 0-1.004.176-1.43.523-.43.35-.71.808-.84 1.374-.066.264-.1.48-.1.65v1.6c0 .697.215 1.286.643 1.768.428.48.984.72 1.668.72.803 0 1.428-.31 1.875-.927.447-.62.67-1.435.67-2.45zM75.7 25.588c0 1.632-.443 2.922-1.33 3.87-.795.842-1.78 1.263-2.96 1.263-1.27 0-2.184-.452-2.74-1.36v5.035h-2.13V24.062c0-1.025-.028-2.076-.08-3.154h1.875l.12 1.52h.04c.71-1.145 1.788-1.718 3.237-1.718 1.13 0 2.076.447 2.834 1.342.754.897 1.134 2.075 1.134 3.536zm-2.173.078c0-.934-.21-1.704-.633-2.31-.46-.632-1.078-.948-1.854-.948-.526 0-1.004.176-1.433.523-.428.35-.707.808-.838 1.374-.066.264-.1.48-.1.65v1.6c0 .697.214 1.286.64 1.768.428.48.984.72 1.67.72.804 0 1.43-.31 1.875-.927.448-.62.672-1.435.672-2.45zM88.04 26.77c0 1.134-.396 2.055-1.183 2.766-.866.776-2.075 1.165-3.625 1.165-1.432 0-2.58-.275-3.446-.828l.493-1.777c.934.554 1.96.83 3.08.83.803 0 1.428-.182 1.874-.543.447-.362.673-.846.673-1.45 0-.54-.187-.994-.554-1.363-.37-.37-.98-.712-1.836-1.027-2.33-.87-3.496-2.14-3.496-3.812 0-1.09.413-1.985 1.235-2.684.822-.698 1.912-1.047 3.268-1.047 1.21 0 2.22.21 3.02.63l-.534 1.74c-.755-.41-1.606-.613-2.558-.613-.752 0-1.342.185-1.764.553-.355.33-.535.73-.535 1.206 0 .525.205.96.613 1.303.354.314 1 .657 1.934 1.025 1.146.462 1.988 1 2.527 1.618.543.618.813 1.39.813 2.308zM95.107 22.508h-2.35v4.66c0 1.184.414 1.775 1.244 1.775.382 0 .698-.032.948-.1l.06 1.62c-.42.157-.974.236-1.66.236-.84 0-1.5-.258-1.974-.772-.473-.514-.71-1.375-.71-2.587v-4.836h-1.4v-1.6h1.4v-1.757l2.093-.632v2.39h2.35v1.603zM105.69 25.627c0 1.475-.423 2.686-1.265 3.633-.88.975-2.053 1.46-3.514 1.46-1.41 0-2.53-.466-3.366-1.4-.836-.934-1.254-2.112-1.254-3.533 0-1.487.432-2.705 1.293-3.652.863-.948 2.025-1.422 3.486-1.422 1.407 0 2.538.468 3.394 1.402.818.906 1.225 2.076 1.225 3.512zm-2.21.05c0-.88-.19-1.634-.572-2.265-.447-.762-1.087-1.143-1.916-1.143-.854 0-1.51.38-1.955 1.142-.382.63-.572 1.398-.572 2.304 0 .88.19 1.636.572 2.265.46.763 1.104 1.144 1.937 1.144.815 0 1.454-.39 1.916-1.162.392-.646.59-1.405.59-2.286zM112.622 22.783c-.21-.04-.437-.06-.672-.06-.75 0-1.33.283-1.738.85-.354.5-.532 1.133-.532 1.896v5.034h-2.132V23.93c0-1.105-.02-2.113-.062-3.02h1.857l.078 1.835h.06c.226-.63.58-1.14 1.066-1.52.475-.344.988-.515 1.54-.515.198 0 .376.014.534.04l.002 2.033zM122.157 25.252c0 .382-.025.704-.078.967h-6.397c.024.947.334 1.673.928 2.173.54.446 1.237.67 2.093.67.947 0 1.81-.15 2.588-.453l.335 1.48c-.908.395-1.98.592-3.217.592-1.488 0-2.656-.438-3.506-1.312-.848-.875-1.273-2.05-1.273-3.524 0-1.446.394-2.65 1.185-3.612.828-1.026 1.947-1.54 3.355-1.54 1.383 0 2.43.514 3.14 1.54.564.813.847 1.82.847 3.018zm-2.033-.553c.015-.634-.125-1.18-.414-1.64-.37-.594-.937-.89-1.698-.89-.697 0-1.265.29-1.697.87-.355.46-.566 1.014-.63 1.657l4.44.002z"/></g><g fill="#FFF"><path d="M48.747 12.433H47.63l-.61-1.92h-2.126l-.583 1.92h-1.086l2.106-6.54h1.3l2.117 6.54zm-1.912-2.727l-.553-1.708c-.058-.175-.165-.582-.33-1.232h-.02c-.068.28-.165.69-.31 1.232l-.544 1.708h1.757zM54.013 7.717l-1.786 4.716h-1.02L49.48 7.717h1.126l.806 2.494c.136.418.252.816.34 1.194h.028c.078-.34.194-.737.34-1.193l.795-2.493h1.098zM57.815 12.433l-.078-.543h-.03c-.32.437-.785.65-1.377.65-.844 0-1.446-.592-1.446-1.388 0-1.164 1.01-1.766 2.756-1.766V9.3c0-.622-.33-.933-.98-.933-.466 0-.874.117-1.232.35l-.213-.69c.437-.27.98-.407 1.62-.407 1.233 0 1.855.65 1.855 1.95v1.738c0 .476.02.845.068 1.126h-.943zm-.146-2.35c-1.166 0-1.748.283-1.748.952 0 .495.3.737.718.737.534 0 1.03-.407 1.03-.96v-.728zM61.024 6.94c-.35 0-.62-.272-.62-.63 0-.36.28-.622.64-.622s.65.262.64.62c0 .38-.27.632-.66.632zm.544 5.493H60.52V7.717h1.048v4.716zM64.478 12.433H63.43v-6.88h1.048v6.88zM68.932 12.433l-.078-.543h-.03c-.32.437-.785.65-1.377.65-.844 0-1.446-.592-1.446-1.388 0-1.164 1.01-1.766 2.757-1.766V9.3c0-.622-.33-.933-.98-.933-.466 0-.874.117-1.232.35l-.214-.69c.438-.272.98-.408 1.622-.408 1.232 0 1.854.65 1.854 1.95v1.737c0 .476.02.845.067 1.126h-.94zm-.146-2.35c-1.165 0-1.747.283-1.747.952 0 .495.3.737.717.737.534 0 1.03-.407 1.03-.96v-.728zM74.052 12.54c-.67 0-1.163-.282-1.483-.835h-.022l-.06.728h-.893c.03-.378.04-.806.04-1.27v-5.61h1.048v2.854h.02c.31-.524.814-.786 1.504-.786 1.136 0 1.932.972 1.932 2.388 0 1.464-.885 2.532-2.088 2.532zm-.213-4.096c-.604 0-1.156.524-1.156 1.252v.825c0 .65.496 1.185 1.137 1.185.786 0 1.253-.64 1.253-1.66 0-.95-.487-1.6-1.234-1.6zM78.736 12.433H77.69v-6.88h1.046v6.88zM84.44 10.327h-3.145c.02.893.61 1.397 1.485 1.397.466 0 .893-.078 1.27-.223l.164.73c-.446.193-.97.29-1.58.29-1.477 0-2.35-.932-2.35-2.377 0-1.446.894-2.533 2.23-2.533 1.204 0 1.962.893 1.962 2.242.004.184-.005.35-.035.475zm-.96-.747c0-.728-.37-1.242-1.04-1.242-.6 0-1.075.524-1.145 1.242h2.185zM90.793 12.54c-1.378 0-2.27-1.03-2.27-2.426 0-1.456.91-2.494 2.35-2.494 1.356 0 2.27.98 2.27 2.417 0 1.474-.942 2.503-2.35 2.503zm.04-4.154c-.757 0-1.242.708-1.242 1.698 0 .97.496 1.68 1.233 1.68.737 0 1.23-.758 1.23-1.7.002-.96-.483-1.678-1.22-1.678zM98.777 12.433H97.73V9.725c0-.834-.32-1.252-.95-1.252-.622 0-1.05.534-1.05 1.155v2.805h-1.047V9.065c0-.417-.01-.864-.04-1.35h.923l.05.73h.028c.28-.505.854-.826 1.494-.826.99 0 1.64.756 1.64 1.988v2.825zM105.634 8.503h-1.153v2.29c0 .583.204.874.61.874.186 0 .342-.02.467-.05l.03.797c-.205.078-.478.117-.815.117-.826 0-1.32-.455-1.32-1.65V8.504h-.687v-.786h.688v-.864l1.028-.31v1.173h1.154v.787zM111.184 12.433h-1.05V9.745c0-.844-.32-1.27-.95-1.27-.543 0-1.047.368-1.047 1.115v2.843h-1.05v-6.88h1.05v2.833h.02c.33-.514.806-.767 1.417-.767 1 0 1.61.775 1.61 2.008v2.805zM116.54 10.327h-3.146c.02.893.61 1.397 1.484 1.397.467 0 .893-.078 1.27-.223l.165.73c-.446.193-.97.29-1.582.29-1.475 0-2.348-.932-2.348-2.377 0-1.446.894-2.533 2.23-2.533 1.204 0 1.962.893 1.962 2.242.004.184-.006.35-.035.475zm-.962-.747c0-.728-.368-1.242-1.038-1.242-.603 0-1.077.524-1.146 1.242h2.184z"/></g></g></svg>