<svg version="1.1" x="0px" y="0px" width="176.847px" height="23.4px" viewBox="0 0 176.847 23.4">
          <g>
            <g>
              <g>
                <path d="M44.19,20.074c-3.234-0.365-0.939-5.373-0.156-7.564c0.313-0.939,0.574-1.721,1.043-2.817 c0.522-1.2,1.252-3.391,2.608-2.034c1.878-2.504,4.486-5.634,7.146-7.407c1.669-1.148,4.382,1.617,4.017,3.443 c-0.782,3.808-5.216,6.52-8.242,8.398c-1.148,0.678-2.66,1.304-3.443,2.087C45.598,15.849,45.702,18.457,44.19,20.074z M50.501,8.755c2.295-1.565,5.321-3.338,5.686-6.207C53.735,4.008,52.066,6.303,50.501,8.755z"></path>
                <path d="M132.919,9.798c2.139,0.835,5.268,1.982,3.964,5.008c-0.522,1.148-1.826,3.025-2.712,3.704 c-2.712,2.034-7.407,4.069-11.111,4.382c-1.826,0.156-3.286-0.104-4.225-0.782c-0.365-0.261-1.095-1.304-0.939-1.826 c0.417-1.565,2.66,0.261,2.973,0.365c0.469,0.104,1.356,0,2.034-0.104c5.477-0.939,10.433-3.182,11.998-7.824 c-1.565-0.73-3.13-1.043-4.903-0.626c-2.295,0.574-5.268,3.756-5.79,0c3.756-2.765,9.181-3.808,10.276-9.285 c-7.303,1.617-9.911,8.711-13.928,13.875c-3.495-0.782-0.522-4.434,0.522-6.416c0.939-1.669,1.826-3.13,2.817-4.121 c0.313-0.156,0.469,0,0.782,0.104c2.034-1.982,5.008-5.425,8.659-5.894c1.461-0.156,3.234,1.356,3.443,2.817 C137.092,6.459,134.327,7.972,132.919,9.798z"></path>
                <path d="M165.208,6.929c-0.209,0.574-0.991,0.522-1.043,1.252c2.817,0.365,9.598-2.243,8.92,1.93 c-2.869,0.156-6.26,0.209-9.494,0.782c0.209,2.712,1.2,4.643,3.078,5.686c1.148-0.052,1.826-2.973,2.869-3.13 c0.574-0.104,1.565,0.887,1.565,1.565c0.052,0.835-0.835,1.669-1.408,2.347c-0.417,0.574-1.356,1.93-1.774,2.034 c-1.095,0.209-2.921-1.461-3.495-2.087c-1.565-1.617-2.504-3.808-3.182-6.312c-2.295,0.052-4.955,1.461-4.903-1.669 c1.356-0.522,3.182-0.626,4.747-0.939c0.939-3.808,7.355-6.103,12.258-5.894c1.148,0.052,3.078,1.2,2.869,2.191 c-0.209,0.939-1.513,0.261-2.295,0.156C170.529,4.529,167.712,6.147,165.208,6.929z"></path>
                <path d="M39.495,3.851c-0.887,5.268-3.234,8.555-4.799,13.51c-0.261,0.887-1.043,4.382-2.034,4.486 c-2.712,0.156-1.043-3.338-0.626-4.643c0.991-3.078,2.191-6.52,3.234-9.024c-2.712,1.304-5.581,6.677-9.024,7.616 c-2.087,0.574-3.547-2.034-3.078-3.964c-0.678,0.313-1.252,1.252-1.93,2.087c-0.469,0.626-1.2,2.139-1.93,2.295 c-0.835,0.156-1.669-0.782-1.774-1.513c-0.313-2.556,2.399-6.416,3.338-8.085c0.73,0.156,1.148,0.626,1.669,0.939 c1.461-0.678,2.973-4.434,4.903-4.643c0.887-0.104,1.774,0.73,1.826,1.304c0.104,1.2-1.356,3.13-1.93,4.225 c-0.782,1.513-1.356,2.712-1.774,4.382c4.173-2.295,7.407-7.824,11.476-10.015C37.878,2.495,38.921,3.173,39.495,3.851z"></path>
                <path d="M107.098,5.364c-2.139,0.052-4.434,0.313-6.833,0.939c-0.887,0.261-4.069,0.678-4.121,1.93 c-0.052,1.043,1.774,1.461,2.608,1.774c1.826,0.678,4.955,1.721,4.799,3.964c-0.156,3.078-7.668,5.164-8.503,1.252 c0.365-0.835,0.939-0.365,1.826-0.261c1.669,0.209,3.443-0.678,4.225-1.669c-2.347-1.93-7.094-1.826-7.355-5.529 c-0.104-1.356,1.2-2.243,2.191-2.712c2.034-0.991,5.268-1.774,7.824-1.93C105.638,2.912,107.776,3.538,107.098,5.364z"></path>
                <path d="M82.425,15.588c1.565-0.469,2.712-1.408,3.182-2.973c-3.495-0.522-7.355-2.817-5.373-6.051 c0.469-0.782,1.93-1.774,2.973-2.191c1.356-0.574,4.33-1.461,6.312-0.939c0.313,0.104,1.461,0.939,1.408,1.513 c-0.052,0.991-3.86,1.095-5.008,1.408c-1.2,0.313-4.017,1.356-3.86,2.712c0.156,1.2,3.651,1.252,4.643,1.93 c3.704,2.4-1.721,9.024-5.373,6.416c-0.887-0.626-2.243-2.921-1.669-3.495C80.547,13.032,82.06,15.014,82.425,15.588z"></path>
                <path d="M143.925,20.7c2.4-0.365,4.33-1.043,6.468-2.087c2.608-1.252,4.851-3.912,6.468-1.043 c-0.626,0.991-1.878,1.408-2.869,1.93c-2.295,1.2-4.851,2.295-7.564,3.338c-3.443,1.356-6.103-2.4-5.008-5.425 c1.774-4.851,5.842-9.598,8.137-13.51c0.469-0.73,1.93,0.991,1.93,1.304c0.104,1.304-2.712,3.912-3.338,4.799 c-1.513,2.243-3.86,5.581-4.643,8.085C143.299,18.874,143.091,20.074,143.925,20.7z"></path>
                <path d="M10.962,4.216c2.973-0.522,1.565,2.608,0.887,4.486c-0.939,2.556-1.774,4.643-2.608,7.094 c-0.313,0.939-0.887,3.182-1.513,3.338c-0.835,0.261-1.774-0.782-1.826-1.408c-0.104-0.939,0.835-2.4,1.252-3.443 C8.301,11.258,9.866,6.72,10.962,4.216z"></path>
                <path d="M113.932,4.582c3.13-0.156,1.356,3.078,0.678,4.799c-0.991,2.556-1.93,4.382-2.869,6.99 c-0.365,0.939-0.887,3.182-1.565,3.338c-0.782,0.156-1.617-0.73-1.669-1.408c-0.104-1.043,0.782-2.556,1.252-3.599 C111.01,11.467,112.784,7.398,113.932,4.582z"></path>
                <path d="M72.984,7.085c0.156-0.261,0.052-0.782,0.417-0.887C75.8,5.99,77,9.224,75.592,10.998 c-1.356,1.669-8.868,3.286-11.841,1.826c-0.991-0.469-2.243-1.982-2.295-3.182C61.403,5.834,70.48,4.321,72.984,7.085z M70.949,7.972c-2.869-0.626-5.999,0.574-7.094,2.556c0.626,0.678,2.034,0.73,3.338,0.626c2.504-0.261,6.364-1.095,6.573-3.078 c-0.209-0.052-0.209-0.313-0.417-0.365C73.088,9.015,71.94,8.181,70.949,7.972z"></path>
              </g>
            </g>
            <path d="M41.06,9.12c0.626,2.556-7.981,2.556-12.728,3.286c-6.886,1.043-11.945,1.669-19.04,2.817 c-2.556,0.417-8.607,1.565-9.076,1.2c-0.574-0.417,1.669-1.565,3.443-2.087c2.66-0.782,6.833-1.2,9.65-1.617 C22.125,11.415,33.392,10.267,41.06,9.12z"></path>
          </g>
        </svg>
