<svg width="147" height="38" viewBox="0 0 147 38" xmlns="http://www.w3.org/2000/svg"><title>WStore</title><g fill="none" fill-rule="evenodd"><text font-family=".Helvetica Neue DeskInterface" font-size="10.615" letter-spacing=".001" fill="#FFF"><tspan x="38.977" y="11.946">Do</tspan></text><text font-family=".Helvetica Neue DeskInterface" font-size="10.615" fill="#FFF"><tspan x="52.929" y="11.946">w</tspan></text><text font-family=".Helvetica Neue DeskInterface" font-size="10.615" fill="#FFF"><tspan x="60.613" y="11.946">n</tspan></text><text font-family=".Helvetica Neue DeskInterface" font-size="10.615" letter-spacing="-.004" fill="#FFF"><tspan x="66.749" y="11.946">lo</tspan></text><text font-family=".Helvetica Neue DeskInterface" font-size="10.615" fill="#FFF"><tspan x="75.696" y="11.946">ad </tspan></text><text font-family=".Helvetica Neue DeskInterface" font-size="10.615" fill="#FFF"><tspan x="89.999" y="11.946">f</tspan></text><text font-family=".Helvetica Neue DeskInterface" font-size="10.615" fill="#FFF"><tspan x="93.457" y="11.946">r</tspan></text><text font-family=".Helvetica Neue DeskInterface" font-size="10.615" letter-spacing="-.004" fill="#FFF"><tspan x="97.069" y="11.946">om</tspan></text><g font-family=".Helvetica Neue DeskInterface" fill="#FFF" font-size="15.912"><text><tspan x="38.977" y="28.884">W</tspan></text><text><tspan x="53.607" y="28.884">i</tspan></text><text><tspan x="56.9" y="28.884">n</tspan></text><text><tspan x="65.886" y="28.884">d</tspan></text><text><tspan x="74.76" y="28.884">o</tspan></text><text letter-spacing=".422"><tspan x="83.473" y="28.884">w</tspan> <tspan x="96.283" y="28.884" letter-spacing=".474">s</tspan> <tspan x="104.972" y="28.884" letter-spacing="-.03"> St</tspan></text><text><tspan x="117.593" y="28.884">o</tspan></text><text letter-spacing="-.003"><tspan x="126.387" y="28.884">re</tspan></text></g><path d="M0 38h147V0H0v38z" fill="#098C44"/><path d="M27.965 10.264l-20.702 4.12v14.984l20.702 4.12 4.138-1.498V11.762l-4.138-1.498zM16.308 26.268l-4.594-.644V21.83h4.594v4.438zm0-5.015h-4.594v-3.49l4.594-.646v4.136zm6.368 5.893l-5.792-.842V21.83h5.792v5.316zm0-5.893h-5.792v-4.17l5.792-.844v5.013zm-9.014-9.046V8.765c-.025-2.132 1.08-2.786 3.125-3.263 3.077-.718 3.272 1.257 3.272 2.514v2.916l.752-.15V8.078c-.006-2.378-.752-4.16-4.176-3.385-1.844.416-3.726.883-3.726 4v3.66l.752-.148zM21.41 6.67c.05.23.09.484.116.753 1.967-.28 1.93.526 1.93 2.212v.622l.743-.152v-.47c0-2.618-.41-3.32-2.79-2.964zm-2.187.512c.048.213.075.472.08.778-1.098.47-1.52.81-1.5 2.43v.992l-.753.15v-1.15c0-2.385.917-2.76 2.173-3.2z" fill="#FFF"/><text font-family=".Helvetica Neue DeskInterface" font-size="10.615" letter-spacing=".001" fill="#FFF"><tspan x="38.977" y="11.946">Do</tspan></text><text font-family=".Helvetica Neue DeskInterface" font-size="10.615" fill="#FFF"><tspan x="52.929" y="11.946">w</tspan></text><text font-family=".Helvetica Neue DeskInterface" font-size="10.615" fill="#FFF"><tspan x="60.613" y="11.946">n</tspan></text><text font-family=".Helvetica Neue DeskInterface" font-size="10.615" letter-spacing="-.004" fill="#FFF"><tspan x="66.749" y="11.946">lo</tspan></text><text font-family=".Helvetica Neue DeskInterface" font-size="10.615" fill="#FFF"><tspan x="75.696" y="11.946">ad </tspan></text><text font-family=".Helvetica Neue DeskInterface" font-size="10.615" fill="#FFF"><tspan x="89.999" y="11.946">f</tspan></text><text font-family=".Helvetica Neue DeskInterface" font-size="10.615" fill="#FFF"><tspan x="93.457" y="11.946">r</tspan></text><text font-family=".Helvetica Neue DeskInterface" font-size="10.615" letter-spacing="-.004" fill="#FFF"><tspan x="97.069" y="11.946">om</tspan></text><text font-family=".Helvetica Neue DeskInterface" font-size="15.912" fill="#FFF"><tspan x="38.977" y="28.884">W</tspan></text><text font-family=".Helvetica Neue DeskInterface" font-size="15.912" fill="#FFF"><tspan x="53.607" y="28.884">i</tspan></text><text font-family=".Helvetica Neue DeskInterface" font-size="15.912" fill="#FFF"><tspan x="56.9" y="28.884">n</tspan></text><text font-family=".Helvetica Neue DeskInterface" font-size="15.912" fill="#FFF"><tspan x="65.886" y="28.884">d</tspan></text><text font-family=".Helvetica Neue DeskInterface" font-size="15.912" fill="#FFF"><tspan x="74.76" y="28.884">o</tspan></text><text font-family=".Helvetica Neue DeskInterface" font-size="15.912" letter-spacing=".422" fill="#FFF"><tspan x="83.473" y="28.884">w</tspan> <tspan x="96.283" y="28.884" letter-spacing=".474">s</tspan> <tspan x="104.972" y="28.884" letter-spacing="-.03"> St</tspan></text><text font-family=".Helvetica Neue DeskInterface" font-size="15.912" fill="#FFF"><tspan x="117.593" y="28.884">o</tspan></text><text font-family=".Helvetica Neue DeskInterface" font-size="15.912" letter-spacing="-.003" fill="#FFF"><tspan x="126.387" y="28.884">re</tspan></text><path d="M0 38h147V0H0v38z" fill="#000"/><path d="M27.965 10.264l-20.702 4.12v14.984l20.702 4.12 4.138-1.498V11.762l-4.138-1.498zM16.308 26.268l-4.594-.644V21.83h4.594v4.438zm0-5.015h-4.594v-3.49l4.594-.646v4.136zm6.368 5.893l-5.792-.842V21.83h5.792v5.316zm0-5.893h-5.792v-4.17l5.792-.844v5.013zm-9.014-9.046V8.765c-.025-2.132 1.08-2.786 3.125-3.263 3.077-.718 3.272 1.257 3.272 2.514v2.916l.752-.15V8.078c-.006-2.378-.752-4.16-4.176-3.385-1.844.416-3.726.883-3.726 4v3.66l.752-.148zM21.41 6.67c.05.23.09.484.116.753 1.967-.28 1.93.526 1.93 2.212v.622l.743-.152v-.47c0-2.618-.41-3.32-2.79-2.964zm-2.187.512c.048.213.075.472.08.778-1.098.47-1.52.81-1.5 2.43v.992l-.753.15v-1.15c0-2.385.917-2.76 2.173-3.2zM111.792 14.68h-.866v-3.088c0-.602-.092-1.034-.277-1.294-.186-.26-.496-.39-.932-.39-.37 0-.684.166-.943.503-.257.336-.387.737-.387 1.203v3.067h-.866v-3.193c0-1.054-.41-1.58-1.23-1.58-.38 0-.692.158-.94.475-.245.317-.368.726-.368 1.23v3.068h-.866V9.302h.866v.85h.022c.383-.654.94-.98 1.672-.98.352 0 .668.097.95.294.282.196.476.47.586.824.4-.746 1-1.12 1.794-1.12 1.19 0 1.784.733 1.784 2.197v3.313zm-9.9-2.678c0-.675-.15-1.194-.45-1.555-.302-.36-.732-.54-1.29-.54-.557 0-.997.184-1.32.554-.325.37-.486.89-.486 1.562 0 .645.162 1.148.488 1.51.325.364.764.544 1.317.544.563 0 .995-.178 1.294-.535.298-.356.448-.87.448-1.538zm.887-.032c0 .855-.245 1.542-.732 2.062-.488.52-1.14.78-1.96.78-.8 0-1.437-.253-1.914-.76-.476-.505-.715-1.172-.715-1.998 0-.89.244-1.592.732-2.107.49-.517 1.164-.776 2.022-.776.802 0 1.43.25 1.884.75.454.5.68 1.182.68 2.05zm-5.713-1.795c-.156-.116-.375-.174-.66-.174-.384 0-.695.18-.934.54-.24.358-.36.825-.36 1.4v2.74h-.865V9.302h.866v1.11h.02c.12-.372.305-.666.555-.882.25-.214.535-.323.86-.323.225 0 .397.026.517.074v.895zm-3.53-2.7c-.17-.095-.36-.142-.576-.142-.604 0-.906.38-.906 1.14v.83h1.265v.73h-1.266v4.647h-.866v-4.648h-.918v-.73h.918V8.43c0-.545.16-.987.486-1.323.323-.336.735-.504 1.234-.504.264 0 .473.03.628.095v.777zm-7.805 4.773v-.793c0-.443-.15-.813-.447-1.108-.297-.293-.66-.44-1.084-.44-.52 0-.933.192-1.24.574-.305.384-.458.916-.458 1.596 0 .615.144 1.103.433 1.463.288.358.677.536 1.165.536.476 0 .866-.17 1.173-.515.305-.342.46-.78.46-1.312zm.865 2.432h-.865v-.913h-.022c-.4.696-1.02 1.045-1.858 1.045-.68 0-1.225-.245-1.63-.733-.405-.49-.607-1.142-.607-1.957 0-.89.225-1.604.673-2.143.448-.54 1.05-.81 1.802-.81.74 0 1.28.292 1.62.873h.022V6.718h.865v7.962zm-7.066-2.72l-1.308.184c-.446.063-.76.17-.94.317-.178.15-.268.39-.268.724 0 .27.096.486.29.648.193.163.44.244.744.244.43 0 .783-.15 1.063-.45.28-.302.42-.678.42-1.13v-.535zm.866 2.72h-.865v-.84h-.02c-.377.648-.93.972-1.663.972-.52 0-.937-.14-1.25-.423-.313-.283-.47-.662-.47-1.138 0-1.002.595-1.586 1.783-1.755l1.62-.225c0-.91-.37-1.365-1.113-1.365-.65 0-1.238.218-1.762.656V9.68c.157-.12.43-.233.812-.343.384-.11.725-.166 1.025-.166 1.27 0 1.904.67 1.904 2.013v3.497zm-6.053-2.678c0-.675-.15-1.194-.45-1.555-.302-.36-.732-.54-1.29-.54s-.998.184-1.32.554c-.324.37-.486.89-.486 1.562 0 .645.163 1.148.488 1.51.325.364.764.544 1.317.544.562 0 .994-.178 1.292-.535.3-.356.45-.87.45-1.538zm.887-.032c0 .855-.245 1.542-.73 2.062-.49.52-1.142.78-1.962.78-.798 0-1.436-.253-1.912-.76-.477-.505-.716-1.172-.716-1.998 0-.89.245-1.592.734-2.107.49-.517 1.163-.776 2.02-.776.804 0 1.43.25 1.885.75.453.5.68 1.182.68 2.05zm-6.66 2.71h-.866V6.718h.866v7.962zm-2.496 0h-.865v-3.067c0-1.138-.42-1.706-1.257-1.706-.426 0-.783.16-1.07.48-.286.32-.43.73-.43 1.226v3.067h-.865V9.302h.865v.893h.022c.405-.683.996-1.024 1.773-1.024.594 0 1.048.193 1.36.58.31.384.466.93.466 1.637v3.293zM60.58 9.302l-1.62 5.378h-.897l-1.114-3.85c-.04-.132-.067-.296-.085-.493h-.02c-.01.123-.048.284-.11.484l-1.21 3.86h-.866l-1.63-5.378h.907l1.113 4.045c.035.14.06.3.074.482h.042c.008-.133.04-.298.1-.494l1.24-4.034h.793l1.122 4.054c.036.138.06.298.075.484h.04c.008-.168.037-.328.086-.484l1.103-4.054h.854zm-9.033 2.7c0-.675-.15-1.194-.452-1.555-.3-.36-.73-.54-1.29-.54-.556 0-.996.184-1.32.554-.323.37-.485.89-.485 1.562 0 .645.163 1.148.488 1.51.326.364.765.544 1.318.544.562 0 .993-.178 1.292-.535.3-.356.45-.87.45-1.538zm.885-.032c0 .855-.243 1.542-.73 2.062-.488.52-1.14.78-1.96.78-.8 0-1.437-.253-1.913-.76-.478-.505-.716-1.172-.716-1.998 0-.89.244-1.592.733-2.107.49-.517 1.163-.776 2.022-.776.8 0 1.428.25 1.883.75.453.5.68 1.182.68 2.05zm-7.213-1.13c0-1.928-1.03-2.893-3.088-2.893H40.95v5.935h1.124c1 0 1.773-.265 2.322-.796.55-.53.823-1.278.823-2.245zm.928-.02c0 .767-.17 1.444-.507 2.03-.336.586-.817 1.038-1.44 1.355-.622.317-1.334.475-2.137.475h-2V7.15h2.09c2.663 0 3.995 1.222 3.995 3.67zM100.565 28.59c0 .693-.268 1.256-.805 1.69-.537.43-1.25.65-2.14.65-.76 0-1.427-.163-1.997-.486v-1.378c.632.512 1.33.768 2.09.768 1.02 0 1.533-.373 1.533-1.12 0-.302-.1-.548-.3-.74-.198-.19-.652-.445-1.36-.77-.71-.3-1.215-.625-1.508-.972-.294-.348-.44-.808-.44-1.382 0-.66.267-1.214.802-1.66.533-.44 1.213-.662 2.036-.662.633 0 1.206.125 1.72.376v1.29c-.524-.38-1.13-.572-1.822-.572-.426 0-.767.105-1.027.314-.26.208-.39.477-.39.806 0 .354.1.626.3.818.2.19.61.415 1.234.674.766.325 1.303.663 1.61 1.018.31.355.465.8.465 1.337zm-5.49-5.867l-2.414 8.01h-1.336L89.667 25c-.058-.2-.1-.444-.126-.735h-.03c-.018.183-.07.422-.166.72l-1.8 5.748h-1.288l-2.43-8.01h1.353l1.656 6.023c.052.21.09.45.11.72h.064c.01-.198.06-.443.15-.736l1.847-6.007h1.178l1.674 6.04c.05.202.088.442.11.718h.06c.013-.25.054-.49.128-.718l1.642-6.04h1.274zm-13.055 4.02c0-1.006-.224-1.776-.672-2.315-.448-.537-1.088-.806-1.922-.806-.828 0-1.483.276-1.964.826-.482.55-.723 1.325-.723 2.327 0 .96.24 1.71.726 2.248.484.54 1.138.81 1.96.81.838 0 1.48-.265 1.926-.796.446-.533.668-1.298.668-2.293zm1.32-.046c0 1.273-.36 2.296-1.09 3.07-.723.775-1.697 1.162-2.918 1.162-1.188 0-2.14-.378-2.85-1.132-.71-.754-1.063-1.745-1.063-2.976 0-1.324.363-2.37 1.092-3.14.727-.77 1.73-1.154 3.01-1.154 1.193 0 2.128.372 2.805 1.114.675.743 1.014 1.76 1.014 3.055zm-10.805.414v-1.18c0-.662-.22-1.21-.664-1.65-.442-.44-.98-.658-1.614-.658-.775 0-1.39.286-1.847.857-.456.57-.685 1.36-.685 2.373 0 .918.216 1.643.645 2.18.43.534 1.008.8 1.738.8.706 0 1.288-.255 1.743-.767.458-.51.685-1.162.685-1.955zm1.29 3.623h-1.29v-1.36h-.03c-.6 1.037-1.52 1.556-2.767 1.556-1.017 0-1.827-.365-2.43-1.093-.602-.727-.902-1.698-.902-2.912 0-1.325.333-2.39 1.002-3.192.667-.803 1.562-1.205 2.683-1.205 1.1 0 1.907.432 2.414 1.298h.03v-4.953h1.29v11.86zm-8.946 0h-1.29v-4.568c0-1.695-.623-2.543-1.87-2.543-.634 0-1.165.24-1.59.716-.43.477-.643 1.086-.643 1.827v4.568H58.2v-8.01h1.287v1.33h.032c.602-1.017 1.48-1.525 2.64-1.525.886 0 1.56.287 2.024.86.464.574.695 1.387.695 2.44v4.905zm-8.632 0h-1.29v-8.01h1.29v8.01zm.22-10.644c0 .24-.084.438-.252.596-.168.16-.366.24-.598.24-.235 0-.434-.077-.596-.23-.163-.156-.244-.36-.244-.607 0-.226.08-.42.24-.586.16-.162.36-.246.6-.246.242 0 .443.082.607.244.16.16.243.357.243.587zm-2.557-.574l-3.184 11.217H49.18l-2.32-8.205c-.09-.308-.146-.687-.173-1.134h-.032c-.04.385-.112.76-.21 1.12l-2.336 8.22h-1.533l-3.294-11.218h1.446l2.396 8.605c.1.38.165.757.197 1.127h.032c.024-.32.105-.693.235-1.126l2.5-8.604h1.273l2.38 8.667c.09.323.154.67.19 1.04h.03c.027-.27.098-.627.214-1.07l2.303-8.637h1.43zM138.243 25.962c-.01-.74-.19-1.315-.54-1.725-.347-.41-.84-.614-1.472-.614-.597 0-1.11.214-1.532.642-.425.427-.692.994-.802 1.697h4.347zm1.32 1.088h-5.683c.02.902.26 1.59.72 2.07.458.475 1.093.714 1.905.714.912 0 1.742-.29 2.492-.876v1.197c-.702.517-1.634.774-2.798.774-1.148 0-2.045-.37-2.69-1.108-.644-.738-.966-1.758-.966-3.06 0-.795.16-1.52.483-2.172.323-.656.767-1.163 1.333-1.522.566-.36 1.195-.54 1.886-.54 1.042 0 1.856.338 2.44 1.013.585.677.877 1.622.877 2.837v.673zm-7.764-3.028c-.232-.172-.56-.258-.985-.258-.57 0-1.034.267-1.39.8-.357.537-.535 1.23-.535 2.086v4.084h-1.29v-8.01h1.29v1.65h.032c.177-.553.452-.99.824-1.31.373-.32.8-.48 1.28-.48.337 0 .594.035.773.11v1.328zm-6.872 2.722c0-1.006-.225-1.778-.672-2.315-.448-.538-1.088-.807-1.922-.807-.828 0-1.483.275-1.965.825-.483.55-.724 1.327-.724 2.327 0 .96.242 1.71.727 2.25s1.138.81 1.96.81c.838 0 1.482-.266 1.927-.8.445-.53.668-1.295.668-2.29zm1.32-.047c0 1.273-.363 2.296-1.088 3.07-.726.775-1.7 1.162-2.92 1.162-1.19 0-2.14-.377-2.85-1.13-.71-.755-1.065-1.746-1.065-2.978 0-1.324.365-2.37 1.093-3.14s1.732-1.154 3.01-1.154c1.195 0 2.13.37 2.807 1.115.676.743 1.014 1.76 1.014 3.054zm-8.886 3.96c-.31.17-.713.257-1.21.257-1.404 0-2.107-.788-2.107-2.363v-4.74h-1.383v-1.086h1.383v-1.956l1.29-.414v2.37h2.027v1.087h-2.028v4.522c0 .538.092.92.275 1.147.183.225.49.34.92.34.318 0 .596-.087.832-.26v1.096zm-5.326-2.754c0 .943-.335 1.683-1.006 2.22-.67.537-1.583.806-2.735.806-.42 0-.893-.07-1.42-.208-.527-.14-.9-.283-1.12-.434V28.73c.32.29.74.528 1.263.72.52.194 1.007.29 1.457.29 1.447 0 2.17-.56 2.17-1.682 0-.47-.155-.872-.464-1.208-.308-.336-.942-.78-1.9-1.326-.928-.522-1.578-1.017-1.95-1.486-.373-.47-.56-1.04-.56-1.713 0-.887.334-1.608 1-2.163.666-.556 1.525-.833 2.578-.833 1.01 0 1.75.13 2.216.398v1.47c-.586-.458-1.35-.688-2.287-.688-.623 0-1.133.155-1.528.465-.397.31-.595.72-.595 1.232 0 .37.06.668.177.89.118.227.317.448.597.667.28.22.752.514 1.418.884.995.553 1.692 1.074 2.09 1.564.398.49.598 1.054.598 1.69z" fill="#FFF"/></g></svg>